<svg id="Layer_1" data-name="Layer 1" xmlns="http://www.w3.org/2000/svg" viewBox="0 0 400 400"><defs><style>.cls-1{fill:#202c39;}.cls-2{fill:#f6ac7b;}</style></defs><title>18F-HumanDB-LogoR1</title><g id="_9HElXD" data-name="9HElXD"><path class="cls-1" d="M111.05654,247.63585c-16.83307,1.64383-33.61491,3.30683-50.316,6.32219a13.99506,13.99506,0,0,1-1.49842.50357,3.48755,3.48755,0,0,0-1.091,1.31849c-4.56863,7.88645-9.06651,15.80889-13.593,23.71884a4.04548,4.04548,0,0,1-1.959,2.05457,2.05793,2.05793,0,0,1-2.3591-.89552,3.954,3.954,0,0,1-.05245-2.901,82.99144,82.99144,0,0,1,7.63618-19.71948,6.827,6.827,0,0,0,1.19242-3.71547,4.326,4.326,0,0,1-.063-1.00129c.14794-1.016,1.09932-1.032,1.64286-1.67238a10.28289,10.28289,0,0,0,1.08354-2.69946q1.23449-3.11891,2.61828-6.17593c1.84635-4.08634,3.87926-8.08744,6.06159-12.00431a211.25381,211.25381,0,0,1,14.669-22.57157q1.74915-2.36959,3.55008-4.70037.86938-1.126,1.755-2.23937,3.33626-4.19295,6.91726-8.18319c1.16034-1.28892,2.49749-2.49243,3.577-3.84542,1.10485-1.38471.69953-2.151-.53888-3.32533a43.325,43.325,0,0,1-5.44017-6.75371l-6.36934-9.09c-5.57895-7.962-9.17777-16.48374-8.64616-26.391a56.22494,56.22494,0,0,1,1.77532-10.96259c.84762-3.29792,2.91385-6.83327,1.9617-10.18705a2.054,2.054,0,0,1,.11974-1.63548c.37347-.59864,3.06632-1.03346,3.72539-.80869a1.52549,1.52549,0,0,1,.97547,1.08126,3.014,3.014,0,0,1-.15725,1.46716c-1.061,3.79569-2.45416,7.457-2.37485,11.45276a46.86723,46.86723,0,0,0,2.43637,12.35228,21.86918,21.86918,0,0,0,2.3729,5.80838,26.73467,26.73467,0,0,0,3.064,3.57627c1.21266,1.28794,2.37277,2.62417,3.53249,3.96,2.72822,2.72822,5.12529,5.90347,7.65562,8.818,2.29648,2.64516,5.18182,5.267,6.9157,8.30788,1.28821-2.68715,4.39869-4.90989,6.38932-7.11924,2.31928-2.57411,4.71331-5.07927,7.07738-7.61193,4.7565-5.09569,9.43869-10.33762,13.04161-16.3357,3.5984-5.99053,6.03654-12.58864,8.81432-19.00112.64758-1.49492,3.94644-8.90688,5.97144-7.73265a3.39821,3.39821,0,0,1,1.4095,2.32391c.32907,1.96178-.27761,4.20594-.47008,6.16552-.15847,1.61341-.04324,3.24538-.33686,4.847-.83689,4.5648-3.37863,9.31821-5.75329,13.261l-3.941,6.54339c-.91988,1.52733-1.83985,3.05479-2.792,4.5622-3.31522,5.24845-6.91084,10.31513-10.65969,15.26157-2.70255,3.56589-5.65441,6.94783-8.14238,10.67337-.87593,1.31164-2.50989,2.94912-1.90808,4.54348.46716,1.23764,1.71683,2.23712,2.53661,3.24243q1.99757,2.44966,3.81174,5.04195a89.35169,89.35169,0,0,1,6.49817,10.83432,90.17555,90.17555,0,0,1,8.16085,23.85074c1.10743,5.79512,1.49684,11.70651,2.25127,17.55394.43494,3.37114.868,6.81387.20378,10.14742a6.01663,6.01663,0,0,1-2.49527,3.67092c-1.34577.84667-2.91209.00179-4.18688-.61331a13.4078,13.4078,0,0,1-2.2218-1.25187c-2.90395-2.16335-3.50938-6.04387-4.56415-9.26688-.1726-.5274-.44686-1.02217-.61059-1.55165a8.06776,8.06776,0,0,1-.333-1.58174c-.04692-.47761-.30624-.527-.67418-.49055Q114.98292,247.25493,111.05654,247.63585ZM71.6261,233.09767a4.2255,4.2255,0,0,0,.98419.18715c6.77373-.6086,13.52938-1.3968,20.28848-2.1463,3.41356-.37852,6.82827-.7476,10.24681-1.07863,3.94236-.38176,7.92181-.54863,11.77038-1.57828.21192-.05672-2.92176-11.939-3.55981-11.69412-1.60271.615-3.47083.45247-5.1457.69992-2.59677.38365-5.18071.95614-7.76257,1.4316-4.35039.80115-8.69923,1.61134-13.05127,2.40345-3.012.54821-6.20607.48765-8.12058,3.26916C75.34844,227.39213,73.28845,230.131,71.6261,233.09767Zm46.6442,8.29033c-.50069-2.53546-1.27028-5.06793-1.8781-7.58874-.24294-1.00752-.7955-.949-1.691-.81338-13.36463,2.02461-26.752,3.91328-40.13279,5.836a37.53488,37.53488,0,0,0-6.37069.99754c-1.13725.20519-1.59323.89719-2.125,1.87507-1.30948,2.4081-2.56024,4.81725-4.01271,7.14122a11.1214,11.1214,0,0,1,2.526-.331c1.55792-.23034,3.09179-.37754,4.64967-.64688q5.06483-.87568,10.13362-1.72831c6.75817-1.128,13.528-2.19169,20.32117-3.08815q5.00059-.65991,10.01757-1.18681c1.70191-.17664,3.4152-.39666,5.12405-.48886A23.42728,23.42728,0,0,0,118.2703,241.388ZM109.922,212.80981c-.84532-1.67705-7.97445-16.66894-9.72973-14.60758-2.52286,2.96276-5.57,5.42371-8.27623,8.2321q-2.54948,2.64571-4.90826,5.46672c-.78537.93937-1.55816,1.89055-2.30641,2.85983-.19513.25277-1.48338,2.40629-1.74768,2.40043a4.6623,4.6623,0,0,0,1.10276-.15883c4.39508-.90722,8.83761-1.5538,13.27447-2.21637C98.38084,214.62933,109.64163,212.25352,109.922,212.80981Z"/><path class="cls-1" d="M91.92613,148.55781a14.30015,14.30015,0,0,1,.094-2.82762,13.48166,13.48166,0,0,1,2.73117-6.86667,11.41265,11.41265,0,0,1,5.23119-3.5111c1.03226-.34493,2.10929-.35255,3.13592-.63255a4.98389,4.98389,0,0,1,2.77421-.34733,7.713,7.713,0,0,1,1.13893.39666,21.56977,21.56977,0,0,1,8.13675,5.27135,7.47988,7.47988,0,0,1,1.83635,3.32329,6.71437,6.71437,0,0,1-.55037,4.04342,16.76186,16.76186,0,0,1-2.23369,3.48189c-2.82331,3.61508-6.72581,7.84225-11.79176,7.02939a13.60406,13.60406,0,0,1-2.23708-.37292,15.01209,15.01209,0,0,1-2.47607-1.13575,12.18721,12.18721,0,0,1-4.40345-3.54594A8.662,8.662,0,0,1,91.92613,148.55781Zm8.74275-.43876a4.50313,4.50313,0,0,0,.38668,1.69458,1.06582,1.06582,0,0,0,.461.55721,1.21969,1.21969,0,0,0,.53567.07641,4.99483,4.99483,0,0,0,1.68911-.20807,4.32775,4.32775,0,0,0,1.69529-1.33587,12.46825,12.46825,0,0,0,1.87773-2.841,4.98377,4.98377,0,0,0,.55918-2.65572c-.342-2.87367-3.366-2.32418-4.95408-.84811a7.92449,7.92449,0,0,0-2.25056,5.56057Z"/></g><g id="_3yCtG4" data-name="3yCtG4"><path class="cls-2" d="M140.561,199.00536c.7548-3.94381,1.54063-7.882,2.25724-11.83275,1.11271-6.13452,2.16209-12.2806,3.30026-18.41028a1.5465,1.5465,0,0,1,1.03074-1.03044c2.41095-.09293,4.82722-.04784,7.4625-.04784l-2.088,12.089h9.94738l2.14787-11.97071H172.955l-5.69055,32.09634h-8.28979l2.1659-12.48809h-9.93918l-2.26443,12.56351H140.561Z"/><path class="cls-2" d="M200.245,199.8501c1.13418-6.36463,2.129-12.62456,3.39348-18.82953,1.01872-4.99893,4.32037-7.59456,9.455-7.85789,1.12586-.05774,2.25925-.05578,3.38542-.00225a8.58525,8.58525,0,0,1,6.47485,2.8071c3.78644-3.06505,8.09162-3.41312,12.54423-2.43412,4.19385.92211,6.35443,4.35367,5.62663,8.58865-1.00972,5.87551-2.06712,11.74283-3.12455,17.72935H229.7021q1.01951-5.94029,2.03661-11.85519c.238-1.37585.49849-2.74782.74763-4.12176.3963-2.18537-.01313-3.1845-1.45124-3.54493-2.091-.52407-4.063.34123-4.59068,2.19064a47.77919,47.77919,0,0,0-.94462,4.73421c-.68844,3.86-1.35289,7.72434-2.03733,11.58509a10.63831,10.63831,0,0,1-.31257,1.08568h-8.17814c.54946-3.21184,1.08584-6.353,1.62448-9.49377.3904-2.27635.8062-4.54862,1.16922-6.82931.32849-2.06372-.05183-2.891-1.4025-3.26185-2.057-.56485-4.14991.29959-4.639,2.11274-.48805,1.80914-.73915,3.68337-1.07062,5.53328-.35051,1.9561-.66756,3.91815-1.00975,5.87577-.34211,1.95713-.69725,3.912-1.06815,5.98805Z"/><path class="cls-1" d="M329.81315,199.8414c1.83671-10.44186,3.64183-20.75937,5.50044-31.06723.07395-.41019.6577-1.04429,1.00151-1.04273,5.3196.024,10.63881.13607,15.95808.22855a1.12125,1.12125,0,0,1,.16.02025c3.83725.62787,6.48026,2.68305,7.0544,5.48507a9.64454,9.64454,0,0,1-3.9041,9.44206c-.17766.1192-.357.23594-.26588.17579.90686,1.47315,2.21341,2.80938,2.58935,4.36981.78417,3.25508-.6374,9.46124-5.56317,11.20612a16.041,16.041,0,0,1-4.83538,1.12931C341.65687,199.92323,335.80033,199.8414,329.81315,199.8414Zm9.20882-6.39691c2.37133,0,4.50866.05525,6.6405-.02906a6.0592,6.0592,0,0,0,2.30335-.62758,3.53988,3.53988,0,0,0,1.72926-3.98582c-.26117-.8049-1.22614-1.87173-1.95952-1.9437-2.472-.24259-4.98247-.09235-7.55541-.09235C339.81155,188.89159,339.43786,191.04641,339.022,193.4445Zm2.2372-12.86861c1.30625,0,2.42155.04811,3.53092-.01241a22.06216,22.06216,0,0,0,3.97058-.40075,3.48787,3.48787,0,0,0,2.32737-3.80173c-.1386-1.73323-1.50266-1.97276-2.786-2.0484-1.91381-.11281-3.83924-.02927-5.92728-.02927C342.01491,176.31318,341.655,178.343,341.25918,180.57589Z"/><path class="cls-1" d="M298.15105,199.97321c1.86751-10.57071,3.6806-20.88976,5.54831-31.19892.07453-.41142.66915-1.04444,1.01886-1.04274,5.10583.02486,10.24692-.20359,15.3077.32147,6.29577.65319,9.32731,5.21275,8.23893,11.4304-.56528,3.22924-1.10552,6.46308-1.69932,9.68706-1.21206,6.58055-4.50222,9.6827-11.18768,10.54285a30.60581,30.60581,0,0,1-3.69749.24845C307.221,199.99081,302.76138,199.97321,298.15105,199.97321ZM310.8807,175.15c-1.02461,5.86431-2.01938,11.55766-3.03,17.34158,2.10375,0,4.09831.14929,6.06053-.03886a4.54533,4.54533,0,0,0,4.325-3.91055c.6078-3.16135,1.20666-6.32856,1.65564-9.51491a3.06049,3.06049,0,0,0-3.083-3.84632C314.89431,175.03073,312.95856,175.15,310.8807,175.15Z"/><path class="cls-2" d="M245.667,182.20248c.56618-5.16346,3.04812-8.05685,8.02928-8.69587a30.202,30.202,0,0,1,8.78987.08488c4.26431.7259,6.49712,4.19949,5.87406,8.41589q-.718,4.85927-1.70544,9.67782c-1.05932,5.17964-3.55865,7.67754-8.86545,8.31212a32.99648,32.99648,0,0,1-8.79668-.1127,6.721,6.721,0,0,1-6.08443-6.3237c-.17684-4.16856,1.82275-7.25822,5.62-8.397a21.74308,21.74308,0,0,1,11.00025-.14168,25.80657,25.80657,0,0,0,.40675-2.87269,2.11017,2.11017,0,0,0-1.65044-2.27485,4.15242,4.15242,0,0,0-4.76755,1.63312,1.59552,1.59552,0,0,1-1.08.66414C250.18558,182.23329,247.93155,182.20248,245.667,182.20248Zm8.51627,12.931c2.68072.00527,4.2401-1.5308,4.24149-4.17807.00083-1.582-.88583-2.24862-3.01371-2.26585-2.78306-.02254-4.17085,1.34449-4.19729,4.13451C251.19858,194.42155,252.10876,195.12941,254.18322,195.13349Z"/><path class="cls-2" d="M292.88438,199.90489h-8.1712c.76811-4.41664,1.52272-8.74,2.27043-13.06456.21952-1.26967.48182-2.53632.61319-3.81578.17768-1.7306-.614-2.59984-2.36376-2.75695-2.85672-.25649-4.30334.86149-4.81609,3.73336-.86813,4.86231-1.7719,9.71889-2.5656,14.59337-.17541,1.07727-.53128,1.442-1.61933,1.40311-2.19772-.0785-4.40021-.0234-6.873-.0234.37338-2.28338.71465-4.46357,1.089-6.63808.60109-3.49208,1.23511-6.97849,1.83525-10.47073.99582-5.79485,3.841-8.84583,9.70737-9.5a26.15929,26.15929,0,0,1,8.75048.57467,6.88132,6.88132,0,0,1,5.38068,8.1913c-.887,5.78242-2.02092,11.527-3.05439,17.2868A3.02791,3.02791,0,0,1,292.88438,199.90489Z"/><path class="cls-2" d="M200.52664,173.56793c-1.13351,6.32146-2.137,12.47181-3.3626,18.57758-.98076,4.8861-4.299,7.55855-9.11365,7.96291a28.36531,28.36531,0,0,1-8.75759-.57923,6.8928,6.8928,0,0,1-5.37371-8.06568c.89225-5.94725,2.0416-11.85594,3.097-17.8666h8.35579c-.88672,5.04593-1.76624,10.05281-2.64757,15.05938-.03725.2116-.10134.41861-.136.63053-.40839,2.49885.04388,3.53787,1.68175,3.87356,2.52459.51743,4.48089-.55021,4.94282-2.88834.74955-3.79394,1.36742-7.61386,2.04448-11.42218.30985-1.74284.62826-3.48416.95286-5.28193Z"/></g></svg>