<svg id="Layer_1" data-name="Layer 1" xmlns="http://www.w3.org/2000/svg" viewBox="0 0 50 50"><defs><style>.cls-1{fill:#202c39;}.cls-2{fill:#f6ac7b;}</style></defs><title>18F-HumanDB-LogoR1</title><g id="_9HElXD" data-name="9HElXD"><path class="cls-1" d="M14.07934,30.8979c-1.98746.19408-3.96887.39043-5.94075.74645a1.65238,1.65238,0,0,1-.17692.05946.41177.41177,0,0,0-.12881.15567c-.53941.93114-1.07047,1.86654-1.6049,2.80046a.47765.47765,0,0,1-.2313.24258.243.243,0,0,1-.27854-.10573.46685.46685,0,0,1-.00619-.34251,9.7987,9.7987,0,0,1,.9016-2.32826.80606.80606,0,0,0,.14079-.43868.51077.51077,0,0,1-.00743-.11822c.01747-.12.1298-.12184.194-.19746a1.21409,1.21409,0,0,0,.12793-.31872q.14576-.36825.30914-.72918c.218-.48247.458-.95487.71568-1.41733a24.94249,24.94249,0,0,1,1.732-2.665q.20652-.27977.41915-.555.10265-.13295.20721-.2644.39391-.49506.81671-.96618c.137-.15218.29488-.29428.42234-.454.13045-.16349.08259-.254-.06362-.39262a5.11533,5.11533,0,0,1-.64231-.7974l-.752-1.07325a4.87539,4.87539,0,0,1-1.02084-3.116,6.63841,6.63841,0,0,1,.20961-1.29434c.10008-.38938.344-.8068.23162-1.20277a.24251.24251,0,0,1,.01414-.1931.67991.67991,0,0,1,.43985-.09548.18011.18011,0,0,1,.11517.12766.35586.35586,0,0,1-.01857.17323A4.67831,4.67831,0,0,0,9.9236,17.49a5.53356,5.53356,0,0,0,.28766,1.45842,2.58207,2.58207,0,0,0,.28017.68579,3.15653,3.15653,0,0,0,.36176.42225c.14318.15207.28015.30983.41708.46755.32212.32212.60514.697.90389,1.04113a6.723,6.723,0,0,1,.81653.9809,4.296,4.296,0,0,1,.75438-.84056c.27383-.30392.55649-.5997.83562-.89873A11.77432,11.77432,0,0,0,16.12049,18.878a18.74844,18.74844,0,0,0,1.0407-2.24344c.07646-.1765.466-1.05162.705-.913a.40122.40122,0,0,1,.16642.27438,2.90416,2.90416,0,0,1-.0555.728c-.01871.19049-.0051.38318-.03977.57227a4.99578,4.99578,0,0,1-.67928,1.56571l-.46531.77257c-.10861.18033-.21723.36068-.32965.53865-.39142.61968-.816,1.2179-1.25858,1.80192-.31909.421-.66761.82032-.96136,1.26019-.10342.15486-.29634.3482-.22528.53644a1.59405,1.59405,0,0,0,.29949.38283q.23585.28923.45.5953a10.54965,10.54965,0,0,1,.76723,1.2792,10.64692,10.64692,0,0,1,.96354,2.816c.13075.68422.17673,1.38217.2658,2.07257a3.716,3.716,0,0,1,.02406,1.19809.71038.71038,0,0,1-.29461.43342c-.15889.1-.34383.00021-.49434-.07241a1.583,1.583,0,0,1-.26233-.14781,2.02124,2.02124,0,0,1-.53888-1.09413c-.02038-.06227-.05276-.12069-.07209-.1832a.95255.95255,0,0,1-.03931-.18675c-.00554-.05639-.03616-.06223-.0796-.05792Q14.54292,30.85293,14.07934,30.8979ZM9.42383,29.1814a.4989.4989,0,0,0,.1162.0221c.79977-.07186,1.5974-.16492,2.39544-.25341.403-.04469.80621-.08827,1.20983-.12735a8.49362,8.49362,0,0,0,1.38971-.18635,6.54719,6.54719,0,0,0-.4203-1.38071,2.84658,2.84658,0,0,1-.60755.08264c-.3066.0453-.61168.11289-.91652.169-.51365.09459-1.02711.19025-1.54095.28377-.35562.06473-.73274.05758-.95879.386C9.86333,28.50775,9.62011,28.83113,9.42383,29.1814Zm5.50723.97883c-.05912-.29936-.15-.59836-.22175-.896-.02868-.119-.09392-.11205-.19966-.096-1.57795.239-3.15857.462-4.73843.68905A4.4317,4.4317,0,0,0,9.019,29.975c-.13427.02423-.18811.10593-.25089.22139-.15461.28432-.30228.56877-.47378.84316a1.31309,1.31309,0,0,1,.29824-.03908c.18394-.0272.365-.04458.549-.07638q.598-.10339,1.19647-.20406c.79793-.13318,1.59724-.25877,2.3993-.36461q.59041-.07792,1.18276-.14013c.20094-.02086.40323-.04683.605-.05772A2.766,2.766,0,0,0,14.93106,30.16023ZM13.94539,26.786c-.09981-.198-.94153-1.96808-1.14878-1.7247-.29787.34981-.65764.64037-.97716.972q-.301.31238-.57951.64545c-.09273.11091-.184.22321-.27232.33766-.023.02984-.17514.28411-.20635.28342a.55047.55047,0,0,0,.1302-.01875c.51892-.10711,1.04345-.18346,1.5673-.26168A10.91033,10.91033,0,0,1,13.94539,26.786Z"/><path class="cls-1" d="M11.82063,19.19988a1.6884,1.6884,0,0,1,.0111-.33385,1.59176,1.59176,0,0,1,.32247-.81074,1.34748,1.34748,0,0,1,.61764-.41455c.12188-.04073.249-.04162.37025-.07468a.58844.58844,0,0,1,.32755-.041.91067.91067,0,0,1,.13447.04683,2.54672,2.54672,0,0,1,.9607.62238.88314.88314,0,0,1,.21682.39238.79276.79276,0,0,1-.065.4774,1.97905,1.97905,0,0,1-.26373.4111c-.33334.42683-.79411.92593-1.39224.83a1.60621,1.60621,0,0,1-.26413-.044,1.77246,1.77246,0,0,1-.29235-.1341,1.43893,1.43893,0,0,1-.51991-.41866A1.02271,1.02271,0,0,1,11.82063,19.19988Zm1.03225-.0518a.53168.53168,0,0,0,.04565.20008.12584.12584,0,0,0,.05443.06579.144.144,0,0,0,.06325.009.58973.58973,0,0,0,.19943-.02457.511.511,0,0,0,.20016-.15772,1.47211,1.47211,0,0,0,.2217-.33543.58843.58843,0,0,0,.066-.31356c-.04038-.33929-.39742-.27441-.58492-.10013a.93563.93563,0,0,0-.26572.65653Z"/></g><g id="_3yCtG4" data-name="3yCtG4"><path class="cls-2" d="M17.5629,25.15616c.08912-.46564.1819-.93062.26651-1.39708.13138-.7243.25528-1.45.38966-2.17368a.18259.18259,0,0,1,.1217-.12166c.28466-.011.56994-.00565.88109-.00565l-.24653,1.42734H20.1498l.2536-1.41337h.98422l-.67188,3.78958H19.737l.25572-1.47445H18.81919l-.26736,1.48336H17.5629Z"/><path class="cls-2" d="M24.60971,25.2559c.13391-.75146.25137-1.49057.40066-2.22318a1.08711,1.08711,0,0,1,1.11634-.92777c.13293-.00682.26675-.00659.39971-.00027a1.01365,1.01365,0,0,1,.76448.33143,1.65918,1.65918,0,0,1,1.48108-.28739.83072.83072,0,0,1,.66433,1.01405c-.11922.69371-.24406,1.38646-.36891,2.09328h-.97972q.12037-.70136.24046-1.39973c.02811-.16244.05886-.32443.08827-.48665.04679-.258-.00155-.376-.17135-.41855a.42317.42317,0,0,0-.542.25865,5.64123,5.64123,0,0,0-.11153.559c-.08128.45575-.15973.912-.24055,1.36784a1.25605,1.25605,0,0,1-.0369.12819h-.96558c.06487-.37922.1282-.75009.1918-1.12092.04609-.26877.09519-.53705.138-.80633.03878-.24366-.00612-.34133-.16559-.38512a.42463.42463,0,0,0-.54773.24945c-.05762.2136-.08727.43489-.12641.65331-.04138.231-.07882.46261-.11922.69375s-.08232.46188-.12612.707Z"/><path class="cls-1" d="M39.90768,25.25487c.21686-1.23286.43-2.451.64943-3.66807.00873-.04843.07765-.1233.11825-.12311.62808.00284,1.25611.01607,1.88415.027l.01889.00239a.91975.91975,0,0,1,.8329.64762,1.13872,1.13872,0,0,1-.461,1.11481c-.021.01407-.04215.02786-.03139.02076a2.03513,2.03513,0,0,1,.30572.51594,1.18857,1.18857,0,0,1-.65684,1.32309,1.894,1.894,0,0,1-.57091.13334C41.306,25.26453,40.61457,25.25487,39.90768,25.25487ZM40.995,24.4996c.28,0,.53233.00652.784-.00343a.7154.7154,0,0,0,.272-.0741.418.418,0,0,0,.20417-.4706c-.03084-.095-.14477-.221-.23136-.22949-.29186-.02864-.58827-.0109-.89206-.0109Zm.26414-1.51938c.15423,0,.28591.00568.41689-.00147a2.60485,2.60485,0,0,0,.4688-.04732.41181.41181,0,0,0,.27479-.44887c-.01636-.20464-.17742-.23292-.32894-.24185-.226-.01332-.45329-.00346-.69983-.00346Z"/><path class="cls-1" d="M36.16937,25.27043c.22049-1.24807.43456-2.46643.65508-3.68362.0088-.04858.079-.12332.1203-.12311.60284.00293,1.20984-.024,1.80736.038a1.04985,1.04985,0,0,1,.97276,1.34957c-.06674.38127-.13053.76309-.20064,1.14374a1.35,1.35,0,0,1-1.32092,1.24478,3.61359,3.61359,0,0,1-.43656.02933C37.24025,25.27251,36.7137,25.27043,36.16937,25.27043Zm1.503-2.93085-.35774,2.0475c.24839,0,.48388.01763.71556-.00459a.53666.53666,0,0,0,.51064-.46171c.07176-.37326.14247-.74721.19548-1.12341a.36135.36135,0,0,0-.364-.45413C38.14622,22.3255,37.91767,22.33959,37.67234,22.33959Z"/><path class="cls-2" d="M29.97263,23.17226a1.01281,1.01281,0,0,1,.948-1.02671,3.56592,3.56592,0,0,1,1.03781.01.82322.82322,0,0,1,.69354.99365q-.08478.57373-.20136,1.14265a1.07207,1.07207,0,0,1-1.04673.9814A3.89586,3.89586,0,0,1,30.36529,25.26a.79354.79354,0,0,1-.71838-.74663.91566.91566,0,0,1,.66354-.99142,2.56718,2.56718,0,0,1,1.29879-.01673,3.047,3.047,0,0,0,.048-.33918.24915.24915,0,0,0-.19487-.26859.49027.49027,0,0,0-.5629.19282.18838.18838,0,0,1-.12752.07841C30.50614,23.1759,30.24,23.17226,29.97263,23.17226ZM30.97814,24.699a.45349.45349,0,0,0,.50079-.4933c.0001-.18678-.10459-.26549-.35583-.26753a.43407.43407,0,0,0-.49557.48816C30.62575,24.615,30.73321,24.69853,30.97814,24.699Z"/><path class="cls-2" d="M35.54754,25.26237h-.96476c.09069-.52147.17979-1.03192.26807-1.54252.02592-.14991.05689-.29946.0724-.45052.021-.20433-.07249-.307-.27909-.32551a.46041.46041,0,0,0-.56863.44079c-.1025.57409-.20921,1.1475-.30292,1.723-.02071.12719-.06273.17025-.19119.16566-.25948-.00927-.51953-.00276-.81148-.00276.04408-.2696.08438-.527.12857-.78375.071-.41231.14583-.82394.21669-1.23627a1.18213,1.18213,0,0,1,1.14614-1.12165,3.0886,3.0886,0,0,1,1.03316.06785.81247.81247,0,0,1,.63529.96714c-.10472.68272-.23861,1.361-.36063,2.041A.3575.3575,0,0,1,35.54754,25.26237Z"/><path class="cls-2" d="M24.643,22.15279c-.13383.74637-.25231,1.47253-.397,2.19343a1.108,1.108,0,0,1-1.076.94017,3.34906,3.34906,0,0,1-1.034-.06839.81382.81382,0,0,1-.63447-.95231c.10535-.70219.241-1.39982.36566-2.10949h.98656c-.10469.59577-.20854,1.18692-.3126,1.778-.0044.025-.012.04942-.01605.07445-.04822.295.00518.41771.19856.45735a.445.445,0,0,0,.58359-.341c.0885-.44795.16145-.899.24139-1.3486.03658-.20578.07418-.41137.1125-.62363Z"/></g></svg>