<svg id="Layer_1" data-name="Layer 1" xmlns="http://www.w3.org/2000/svg" viewBox="0 0 300 300"><defs><style>.cls-1{fill:#202c39;}.cls-2{fill:#f6ac7b;}</style></defs><title>18F-HumanDB-LogoR1</title><g id="_9HElXD" data-name="9HElXD"><path class="cls-1" d="M86.46827,183.83631c-11.92477,1.16451-23.81324,2.3426-35.64447,4.47872a9.91427,9.91427,0,0,1-1.0615.35673,2.47063,2.47063,0,0,0-.77288.934c-3.23647,5.58687-6.42284,11.19922-9.62942,16.80273a2.86587,2.86587,0,0,1-1.38781,1.45548,1.45786,1.45786,0,0,1-1.67121-.6344,2.80109,2.80109,0,0,1-.03716-2.05507A58.79221,58.79221,0,0,1,41.67339,191.205a4.83636,4.83636,0,0,0,.84473-2.63209,3.06461,3.06461,0,0,1-.04461-.70932c.1048-.71977.77878-.731,1.16382-1.18474a7.28453,7.28453,0,0,0,.76759-1.91233q.87453-2.20948,1.85482-4.37511c1.308-2.89481,2.74812-5.72924,4.29411-8.504a149.65494,149.65494,0,0,1,10.39173-15.99q1.23912-1.67865,2.51492-3.3298.61588-.79769,1.24326-1.5864,2.36345-2.97034,4.90028-5.79707c.822-.91309,1.76925-1.76567,2.534-2.72415.78269-.98095.49555-1.5238-.38175-2.3557a30.692,30.692,0,0,1-3.85388-4.78442L63.3903,128.8804c-3.9522-5.64039-6.50165-11.6773-6.125-18.69573a39.83047,39.83047,0,0,1,1.25766-7.766c.60047-2.33629,2.06421-4.84078,1.38969-7.21664a1.45506,1.45506,0,0,1,.08483-1.15859,4.07944,4.07944,0,0,1,2.63912-.57289,1.08067,1.08067,0,0,1,.691.766,2.13518,2.13518,0,0,1-.1114,1.03935c-.75165,2.68891-1.73856,5.28264-1.68237,8.11329a33.20136,33.20136,0,0,0,1.726,8.75051,15.49241,15.49241,0,0,0,1.681,4.11473,18.93918,18.93918,0,0,0,2.17058,2.53348c.85906.91239,1.6809,1.859,2.50246,2.8053,1.9327,1.9327,3.63082,4.1821,5.42334,6.24678,1.62686,1.87387,3.67087,3.7312,4.89917,5.88541.91258-1.90361,3.11609-3.47823,4.52628-5.04336,1.643-1.82353,3.339-3.59822,5.01371-5.39239a70.64591,70.64591,0,0,0,9.23885-11.57242c2.54915-4.24377,4.27636-8.918,6.24418-13.46064.45875-1.059,2.79571-6.30975,4.23025-5.47791a2.40734,2.40734,0,0,1,.99851,1.64628,17.42494,17.42494,0,0,1-.333,4.36774c-.11226,1.143-.03063,2.29907-.23863,3.43365-.59287,3.23377-2.39346,6.60114-4.07571,9.39425l-2.79184,4.63542c-.65166,1.082-1.30337,2.16405-1.9779,3.23192-2.34854,3.71807-4.89573,7.30737-7.55146,10.81149-1.91452,2.52612-4.00566,4.92193-5.76816,7.56115-.62052.92918-1.778,2.08919-1.35171,3.21866a9.56431,9.56431,0,0,0,1.797,2.297q1.4151,1.73537,2.70029,3.57178a63.29789,63.29789,0,0,1,4.60339,7.67517,63.88152,63.88152,0,0,1,5.78125,16.89617c.78452,4.10534,1.06038,8.293,1.59483,12.43544a22.296,22.296,0,0,1,.14436,7.18857,4.26226,4.26226,0,0,1-1.76768,2.60053c-.95336.59979-2.063.00127-2.966-.43447a9.49825,9.49825,0,0,1-1.574-.88684c-2.0572-1.53255-2.48609-4.28155-3.2333-6.56478-.12227-.37361-.31656-.72412-.43255-1.09921a5.71531,5.71531,0,0,1-.23588-1.12052c-.03324-.33834-.21695-.37336-.4776-.34752Q89.24977,183.56646,86.46827,183.83631Zm-27.933-10.299a2.9934,2.9934,0,0,0,.69721.13258c4.7986-.43114,9.58439-.98951,14.37262-1.52047,2.41821-.26815,4.83724-.52961,7.259-.76411a50.96174,50.96174,0,0,0,8.33829-1.11807c.15013-.04018-2.06981-8.45772-2.52182-8.28426a17.07948,17.07948,0,0,1-3.64528.49583c-1.83959.27178-3.67008.67734-5.49911,1.01417-3.08187.56754-6.16265,1.14149-9.24569,1.70264-2.13372.38836-4.39646.34546-5.75272,2.31591C61.17219,169.4954,59.71287,171.43564,58.53524,173.53727Zm33.04336,5.873c-.35469-1.79615-.89988-3.59018-1.33047-5.376-.1721-.71374-.56354-.67231-1.198-.57621-9.46768,1.43426-18.95145,2.77222-28.43059,4.13431a26.59019,26.59019,0,0,0-4.51308.70667c-.80564.14536-1.12867.63558-1.50537,1.32832-.92765,1.70593-1.81371,3.4126-2.84266,5.05893a7.87854,7.87854,0,0,1,1.78942-.23447c1.10365-.16318,2.19027-.26745,3.29389-.45826q3.588-.62035,7.17879-1.22436c4.78757-.79905,9.58343-1.55262,14.39578-2.18769q3.54248-.46749,7.09658-.84075c1.20566-.12513,2.41937-.281,3.62994-.34631A16.5962,16.5962,0,0,0,91.57859,179.41025Zm-5.914-20.24516c-.59883-1.188-5.6492-11.80849-6.89267-10.3482-1.78723,2.09886-3.94585,3.84223-5.863,5.83173q-1.80608,1.87426-3.47707,3.87269c-.55637.66546-1.10382,1.33929-1.63389,2.02594-.13823.17906-1.05085,1.70465-1.23808,1.70049a3.30284,3.30284,0,0,0,.78121-.11252c3.11353-.64269,6.26067-1.10073,9.4038-1.57011C77.48864,160.45406,85.46593,158.771,85.66457,159.16509Z"/><path class="cls-1" d="M72.916,113.64814a10.13041,10.13041,0,0,1,.06659-2.00313,9.55058,9.55058,0,0,1,1.9348-4.86443,8.08487,8.08487,0,0,1,3.70584-2.48731c.73127-.24436,1.49425-.24975,2.22152-.44811a3.53065,3.53065,0,0,1,1.96528-.24605,5.464,5.464,0,0,1,.80683.281,15.2803,15.2803,0,0,1,5.76418,3.73429,5.29885,5.29885,0,0,1,1.30089,2.35426,4.75654,4.75654,0,0,1-.38989,2.86441,11.87432,11.87432,0,0,1-1.58237,2.46662c-2.00007,2.561-4.76465,5.55555-8.35343,4.97971a9.6373,9.6373,0,0,1-1.58477-.26418,10.63476,10.63476,0,0,1-1.75408-.80458,8.63358,8.63358,0,0,1-3.11946-2.512A6.13629,6.13629,0,0,1,72.916,113.64814Zm6.19348-.31082a3.19007,3.19007,0,0,0,.27393,1.20046.755.755,0,0,0,.32657.39473.864.864,0,0,0,.37948.05413,3.53841,3.53841,0,0,0,1.19659-.1474,3.06583,3.06583,0,0,0,1.201-.94635,8.83267,8.83267,0,0,0,1.33021-2.0126,3.53057,3.53057,0,0,0,.39613-1.88135c-.24227-2.03574-2.38452-1.64648-3.50953-.60081a5.61381,5.61381,0,0,0-1.59432,3.93918Z"/></g><g id="_3yCtG4" data-name="3yCtG4"><path class="cls-2" d="M107.36965,149.38584c.53471-2.79385,1.09141-5.58371,1.59906-8.38247.78826-4.34578,1.53165-8.69974,2.33795-13.04208a1.09556,1.09556,0,0,1,.73019-.73c1.70795-.06583,3.41966-.03389,5.28653-.03389l-1.47919,8.564H122.891l1.52158-8.48021h5.90529l-4.03126,22.73746h-5.8726l1.53435-8.84672h-7.041l-1.60415,8.90015h-5.93356Z"/><path class="cls-2" d="M149.6505,149.98427c.80347-4.50879,1.5082-8.9434,2.404-13.33908.72167-3.54131,3.06061-5.38008,6.698-5.56663.79757-.0409,1.60048-.03951,2.39828-.00159a6.0819,6.0819,0,0,1,4.58687,1.98859c2.68237-2.17132,5.73221-2.4179,8.88649-1.72436a4.98433,4.98433,0,0,1,3.986,6.08431c-.7153,4.16229-1.46438,8.31877-2.21347,12.5597h-5.87833q.72224-4.20818,1.44276-8.39837c.16864-.97467.35314-1.94659.52963-2.91991.28074-1.54814-.0093-2.25594-1.02807-2.51127a2.539,2.539,0,0,0-3.2521,1.55188,33.84741,33.84741,0,0,0-.66918,3.35378c-.4877,2.7345-.9584,5.472-1.44327,8.207a7.53632,7.53632,0,0,1-.22143.76911h-5.7935c.38925-2.27531.76922-4.50054,1.1508-6.72551.27656-1.6126.57112-3.2223.82829-4.838.23271-1.462-.03671-2.048-.99355-2.31073a2.54779,2.54779,0,0,0-3.28636,1.49669c-.34574,1.28162-.52362,2.60935-.75844,3.91985-.2483,1.38572-.47291,2.77567-.71532,4.16247-.24235,1.38646-.49394,2.7713-.75669,4.242Z"/><path class="cls-1" d="M241.43829,149.97811c1.30115-7.39715,2.57992-14.70621,3.89658-22.00843.05239-.29059.46592-.73979.70948-.73868,3.76848.017,7.53667.09639,11.30491.16191a.79429.79429,0,0,1,.11336.01435c2.71835.44479,4.5907,1.90071,4.99743,3.8857a6.83232,6.83232,0,0,1-2.76571,6.68888c-.12586.08445-.2529.16714-.18835.12453a12.21078,12.21078,0,0,1,1.83433,3.09563c.55552,2.30594-.45154,6.70247-3.941,7.93856a11.36369,11.36369,0,0,1-3.42545.8C249.82853,150.03607,245.67968,149.97811,241.43829,149.97811Zm6.52365-4.53165c1.67988,0,3.194.03914,4.70422-.02058a4.29242,4.29242,0,0,0,1.63172-.44458,2.5077,2.5077,0,0,0,1.225-2.8236c-.185-.5702-.86861-1.326-1.38815-1.37694-1.75117-.17186-3.52965-.06542-5.35235-.06542C248.52128,142.22112,248.25655,143.74762,247.96193,145.44645Zm1.58486-9.11629c.92537,0,1.71545.03408,2.50135-.00879a15.62912,15.62912,0,0,0,2.81281-.28389,2.47085,2.47085,0,0,0,1.64874-2.6932c-.09818-1.22784-1.0645-1.39753-1.97363-1.45112-1.35577-.07991-2.71976-.02073-4.199-.02073C250.08217,133.31041,249.82723,134.74835,249.5468,136.33016Z"/><path class="cls-1" d="M219.00844,150.07148c1.323-7.48842,2.60738-14.79857,3.93049-22.10172.0528-.29146.474-.73989.72178-.73869,3.617.01761,7.25905-.14422,10.84417.22773,4.46.46273,6.60759,3.69278,5.83656,8.09745-.40045,2.28764-.78316,4.57853-1.20382,6.86244-.85864,4.66175-3.18943,6.85935-7.92549,7.46869a21.68155,21.68155,0,0,1-2.61935.176C225.43374,150.08395,222.27446,150.07148,219.00844,150.07148Zm9.01785-17.58508c-.72585,4.15435-1.43055,8.1876-2.14646,12.285,1.49033,0,2.9033.10576,4.29336-.02753a3.22,3.22,0,0,0,3.06385-2.77029c.43057-2.23954.85482-4.48323,1.17288-6.74049a2.16809,2.16809,0,0,0-2.184-2.72479C230.86958,132.40191,229.49827,132.4864,228.02629,132.4864Z"/><path class="cls-2" d="M181.828,137.48246c.40109-3.65786,2.15933-5.70758,5.688-6.16027a21.3955,21.3955,0,0,1,6.22686.06013,4.93932,4.93932,0,0,1,4.16126,5.96192q-.50868,3.44237-1.20815,6.85589c-.75043,3.66932-2.521,5.43887-6.2804,5.88841a23.37513,23.37513,0,0,1-6.23168-.07984,4.76122,4.76122,0,0,1-4.31029-4.47979c-.12528-2.95306,1.29126-5.14181,3.98125-5.94852a15.40308,15.40308,0,0,1,7.79272-.10037,18.28167,18.28167,0,0,0,.28815-2.03505,1.49487,1.49487,0,0,0-1.16919-1.61153,2.94163,2.94163,0,0,0-3.3774,1.15692,1.13029,1.13029,0,0,1-.76509.47049C185.02908,137.50429,183.4323,137.48246,181.828,137.48246Zm6.033,9.1605a2.721,2.721,0,0,0,3.00473-2.9598c.00059-1.1207-.62753-1.593-2.135-1.60516-1.97156-.016-2.95468.95245-2.97341,2.92894C185.74671,146.13861,186.39149,146.64007,187.86106,146.643Z"/><path class="cls-2" d="M215.27746,150.02308h-5.78859c.54414-3.12881,1.07872-6.19153,1.6084-9.2551.15551-.89945.34133-1.79676.43439-2.70315.12587-1.226-.435-1.84176-1.67452-1.95306-2.02374-.1817-3.04854.61029-3.41178,2.64476-.615,3.44453-1.25523,6.885-1.8175,10.33813-.12426.76315-.37637,1.02151-1.14715.994-1.55689-.05561-3.11717-.01658-4.8689-.01658.26451-1.61757.50627-3.16205.77143-4.7025.42582-2.47383.875-4.94366,1.30012-7.4176.70545-4.10515,2.721-6.2665,6.87683-6.72993a18.53158,18.53158,0,0,1,6.199.40711,4.87481,4.87481,0,0,1,3.81174,5.80283c-.62833,4.09634-1.43165,8.16586-2.16377,12.2462A2.145,2.145,0,0,1,215.27746,150.02308Z"/><path class="cls-2" d="M149.85,131.36564c-.803,4.4782-1.51389,8.83519-2.38211,13.1606a6.6478,6.6478,0,0,1-6.45623,5.641,20.09435,20.09435,0,0,1-6.204-.41034,4.883,4.883,0,0,1-3.8068-5.71383c.63208-4.21311,1.4463-8.3989,2.19394-12.65693h5.91935c-.62817,3.5746-1.25123,7.12154-1.87557,10.66826-.02639.1499-.07179.29655-.09633.44668-.28931,1.77022.03109,2.50627,1.19137,2.74408,1.78845.36655,3.17432-.38978,3.50156-2.04614.531-2.68768.9687-5.39376,1.44834-8.09162.2195-1.23465.44507-2.46822.675-3.74179Z"/></g></svg>