<svg id="Layer_1" data-name="Layer 1" xmlns="http://www.w3.org/2000/svg" viewBox="0 0 160 160"><defs><style>.cls-1{fill:#202c39;}</style></defs><title>18F-HumanDB-LogoR1</title><g id="_9HElXD" data-name="9HElXD"><path class="cls-1" d="M90.01972,122.91091c-15.26282,1.49049-30.47918,2.99835-45.62229,5.73244a12.68954,12.68954,0,0,1-1.35864.45659,3.16222,3.16222,0,0,0-.98922,1.1955c-4.14245,7.15078-8.22075,14.33417-12.32495,21.50626a3.6681,3.6681,0,0,1-1.77629,1.86291,1.866,1.866,0,0,1-2.139-.812,3.58519,3.58519,0,0,1-.04756-2.63034,75.24967,75.24967,0,0,1,6.92385-17.88,6.19018,6.19018,0,0,0,1.08119-3.36888,3.92247,3.92247,0,0,1-.05709-.90788c.13414-.92126.99677-.93569,1.4896-1.51638a9.32366,9.32366,0,0,0,.98246-2.44764q1.11933-2.828,2.374-5.59981c1.67411-3.70515,3.51739-7.333,5.49614-10.8845a191.54722,191.54722,0,0,1,13.30064-20.466q1.586-2.14854,3.21891-4.2619.78828-1.021,1.59129-2.03048,3.025-3.80181,6.272-7.41983c1.0521-1.16869,2.26451-2.25992,3.24335-3.48671,1.00178-1.25554.63427-1.95035-.48861-3.01513a39.28345,39.28345,0,0,1-4.93269-6.1237l-5.77519-8.24207C55.42311,45.35213,52.16,37.62534,52.642,28.64227a50.98005,50.98005,0,0,1,1.60971-9.94c.76855-2.99027,2.642-6.19584,1.77871-9.23676A1.86237,1.86237,0,0,1,56.139,7.98263c.33863-.5428,2.78029-.93706,3.37787-.73325a1.38318,1.38318,0,0,1,.88447.9804,2.73287,2.73287,0,0,1-.14258,1.3303c-.96205,3.44161-2.22522,6.76139-2.15331,10.3844a42.49527,42.49527,0,0,0,2.20909,11.2A19.82914,19.82914,0,0,0,62.46611,36.411a24.24075,24.24075,0,0,0,2.77818,3.24266c1.09954,1.1678,2.15143,2.37938,3.203,3.59058,2.47372,2.47372,4.64718,5.35278,6.94147,7.99542,2.08225,2.39841,4.69844,4.77566,6.27058,7.53288,1.168-2.43648,3.98836-4.45187,5.7933-6.45513,2.10293-2.334,4.27363-4.60545,6.41718-6.90185,4.3128-4.62035,8.55821-9.37329,11.825-14.81184,3.26272-5.43171,5.47343-11.41432,7.99208-17.22862.58717-1.35547,3.5783-8.076,5.4144-7.01132a3.08122,3.08122,0,0,1,1.278,2.10712c.29837,1.77878-.25171,3.8136-.42623,5.59038-.14369,1.4629-.0392,2.94264-.30543,4.39481-.75882,4.139-3.06346,8.449-5.2166,12.02394l-3.57335,5.933c-.83407,1.38485-1.66822,2.76983-2.53157,4.13662-3.006,4.75885-6.26617,9.3529-9.66531,13.83791-2.45044,3.23325-5.12694,6.29971-7.38282,9.67771-.79422,1.18929-2.27576,2.674-1.73008,4.11965.42359,1.12218,1.55667,2.02843,2.3,2.94q1.81123,2.22115,3.45617,4.57161a81.01662,81.01662,0,0,1,5.892,9.82365,81.76362,81.76362,0,0,1,7.39957,21.62585c1.00412,5.25453,1.35721,10.61448,2.04126,15.91644a28.53718,28.53718,0,0,1,.18477,9.20083,5.45538,5.45538,0,0,1-2.2625,3.32848c-1.22023.76769-2.64044.00162-3.79631-.55609a12.15706,12.15706,0,0,1-2.01454-1.13509c-2.63306-1.96155-3.182-5.48007-4.13838-8.40243-.1565-.4782-.40517-.92682-.55363-1.4069a7.31518,7.31518,0,0,1-.30191-1.43419c-.04254-.43305-.27767-.47787-.61129-.44479Q93.57984,122.56552,90.01972,122.91091Zm-35.75221-13.182a3.83134,3.83134,0,0,0,.89238.16969c6.14185-.55183,12.26731-1.2665,18.39589-1.94609,3.09513-.34321,6.1913-.67786,9.29095-.978a65.22725,65.22725,0,0,0,10.67239-1.43105c.19215-.05143-2.6492-10.82525-3.22774-10.60324-1.4532.55765-3.14706.41026-4.66569.63463-2.35454.34786-4.69743.86695-7.03845,1.29806-3.94457.72641-7.88773,1.461-11.8338,2.17925-2.731.49707-5.62715.44216-7.36306,2.9642C57.64262,104.5556,55.7748,107.039,54.26752,109.7289Zm42.293,7.517c-.454-2.29894-1.15178-4.59517-1.70291-6.88084-.22027-.91354-.72129-.86051-1.53329-.7375-12.11792,1.83575-24.25645,3.54823-36.389,5.29161a34.03347,34.03347,0,0,0-5.77641.90448c-1.03116.186-1.44461.81349-1.92676,1.70015-1.18733,2.18346-2.32141,4.36788-3.63839,6.47506a10.084,10.084,0,0,1,2.29032-.30011c1.41259-.20885,2.80338-.34232,4.21593-.58654q4.59237-.794,9.18832-1.56709c6.12774-1.02273,12.26608-1.98724,18.42553-2.80008q4.53412-.59835,9.08309-1.0761c1.54315-.16016,3.09662-.35966,4.64606-.44325A21.24191,21.24191,0,0,0,96.56056,117.24588Zm-7.56951-25.9123c-.76646-1.52061-7.23056-15.114-8.8221-13.24492-2.28752,2.68638-5.0504,4.91776-7.50419,7.46418q-2.31165,2.39891-4.4504,4.95676c-.71211.85174-1.41281,1.71419-2.09126,2.59306-.17692.22919-1.345,2.18182-1.58465,2.17651a4.22738,4.22738,0,0,0,.99989-.144c3.98509-.82259,8.0132-1.40886,12.03617-2.00962C78.52647,92.98336,88.73681,90.82918,88.99105,91.33358Z"/><path class="cls-1" d="M72.67388,33.07525a12.96618,12.96618,0,0,1,.08523-2.56385,12.224,12.224,0,0,1,2.4764-6.22612,10.348,10.348,0,0,1,4.7432-3.18357c.936-.31276,1.91253-.31966,2.84339-.57355a4.519,4.519,0,0,1,2.51542-.31493,6.99354,6.99354,0,0,1,1.03269.35966,19.55765,19.55765,0,0,1,7.37772,4.77961,6.78213,6.78213,0,0,1,1.665,3.01328,6.088,6.088,0,0,1-.499,3.66624,15.19825,15.19825,0,0,1-2.02532,3.15709c-2.55994,3.27785-6.0984,7.1107-10.69177,6.37366a12.335,12.335,0,0,1-2.02839-.33813,13.6117,13.6117,0,0,1-2.24509-1.0298,11.05034,11.05034,0,0,1-3.99268-3.21516A7.854,7.854,0,0,1,72.67388,33.07525Zm7.92719-.39783a4.08306,4.08306,0,0,0,.35061,1.5365.96639.96639,0,0,0,.418.50523,1.10591,1.10591,0,0,0,.4857.06929,4.5289,4.5289,0,0,0,1.53154-.18866,3.924,3.924,0,0,0,1.53714-1.21126,11.30516,11.30516,0,0,0,1.70257-2.576,4.51886,4.51886,0,0,0,.507-2.408c-.31008-2.6056-3.052-2.10737-4.49194-.769a7.18526,7.18526,0,0,0-2.04062,5.04186Z"/></g></svg>